<?xml version="1.0" standalone="no"?>
<!DOCTYPE svg PUBLIC "-//W3C//DTD SVG 20010904//EN"
 "http://www.w3.org/TR/2001/REC-SVG-20010904/DTD/svg10.dtd">
<svg version="1.0" xmlns="http://www.w3.org/2000/svg"
 width="3840.000000pt" height="2160.000000pt" viewBox="0 0 3840.000000 2160.000000"
 preserveAspectRatio="xMidYMid meet">

<g transform="translate(0.000000,2160.000000) scale(0.100000,-0.100000)"
fill="#000000" stroke="none">
<path d="M10405 14000 c-170 -9 -336 -30 -474 -60 -863 -189 -1623 -694 -2089
-1388 -222 -330 -371 -674 -457 -1058 -54 -246 -66 -351 -72 -642 -7 -341 9
-503 78 -792 48 -201 162 -504 252 -670 16 -30 45 -84 65 -120 19 -36 71 -119
115 -184 541 -810 1387 -1333 2377 -1468 150 -20 663 -17 825 5 268 36 512 96
739 181 171 65 350 145 427 192 31 18 59 34 63 34 24 0 369 235 459 312 18 16
53 45 79 65 58 47 309 300 363 367 22 27 61 76 87 110 26 33 51 66 56 71 27
34 137 206 188 295 202 352 319 694 385 1120 27 172 37 549 19 701 -19 169
-20 179 -41 292 -144 786 -593 1494 -1259 1989 -209 156 -412 272 -680 391
-179 79 -503 175 -712 211 -259 44 -528 60 -793 46z m415 -650 c339 -30 692
-133 980 -288 78 -41 253 -148 283 -171 6 -6 68 -55 137 -109 201 -160 393
-370 539 -592 73 -111 69 -103 150 -265 182 -362 271 -738 271 -1148 0 -487
-150 -983 -422 -1392 -284 -426 -666 -743 -1148 -952 -129 -56 -370 -132 -485
-153 -362 -65 -742 -64 -1060 4 -495 105 -933 345 -1301 711 -348 347 -564
724 -684 1195 -41 160 -59 298 -67 490 -23 624 181 1236 577 1725 83 103 285
305 378 379 400 316 850 506 1317 556 61 6 119 13 130 14 50 8 301 5 405 -4z"/>
<path d="M34660 13999 c-285 -15 -607 -85 -913 -198 -187 -70 -378 -157 -488
-223 -13 -8 -53 -32 -89 -53 -77 -45 -256 -163 -285 -187 -11 -9 -56 -44 -99
-79 -417 -332 -741 -754 -944 -1229 -248 -578 -313 -1217 -192 -1875 18 -98
99 -362 146 -480 111 -273 287 -583 451 -790 206 -261 508 -541 778 -722 254
-169 609 -340 865 -416 393 -117 667 -154 1079 -144 475 11 858 96 1291 287
122 53 343 170 385 203 6 4 60 40 120 79 61 39 112 74 115 77 3 4 25 22 50 41
148 112 394 348 512 490 321 386 529 794 652 1282 66 260 81 393 81 738 0 328
-9 422 -61 653 -65 291 -189 624 -308 832 -130 226 -192 319 -329 490 -131
164 -401 428 -542 530 -22 16 -44 34 -50 39 -17 18 -246 171 -315 210 -129 74
-388 195 -521 244 -128 48 -208 73 -389 121 -126 33 -401 71 -588 81 -194 10
-202 10 -412 -1z m445 -649 c376 -35 717 -141 1040 -322 49 -28 92 -55 93 -59
2 -5 8 -9 13 -9 5 0 50 -28 100 -62 276 -190 544 -472 723 -760 212 -344 330
-685 371 -1071 101 -967 -321 -1865 -1132 -2408 -131 -87 -373 -212 -508 -262
-96 -36 -287 -93 -360 -107 -33 -6 -78 -16 -100 -20 -118 -26 -357 -42 -535
-37 -354 10 -661 77 -960 210 -459 204 -833 513 -1112 917 -278 403 -428 853
-445 1335 -14 412 73 817 258 1202 135 281 308 520 533 737 369 356 847 600
1342 686 227 39 468 49 679 30z"/>
<path d="M220 10804 l0 -3104 350 0 350 0 2 1398 3 1397 1575 2 c866 1 1707 3
1868 3 l292 0 0 320 0 320 -1867 2 -1868 3 0 1055 0 1055 1868 3 1867 2 -2
323 -3 322 -2217 2 -2218 2 0 -3105z"/>
<path d="M16527 13902 c-16 -3 -17 -219 -17 -3103 l0 -3099 350 0 350 0 2
2778 3 2777 1160 0 c1239 0 1303 -2 1541 -50 210 -42 450 -138 599 -238 256
-173 449 -499 516 -877 22 -121 17 -394 -9 -508 -71 -308 -246 -579 -497 -766
-135 -101 -244 -157 -408 -210 -219 -71 -385 -87 -1010 -95 l-498 -6 193 -240
c105 -132 309 -386 452 -565 415 -519 460 -574 471 -586 5 -6 262 -327 570
-713 l560 -701 443 0 c243 0 442 2 442 5 0 3 -23 33 -51 67 -28 35 -102 126
-164 203 -127 157 -537 659 -563 690 -9 11 -33 40 -52 65 -19 25 -40 51 -48
58 -7 8 -25 30 -40 50 -15 21 -32 42 -38 47 -6 6 -71 84 -145 175 -73 91 -212
262 -308 380 -96 118 -204 251 -240 295 -35 44 -78 95 -94 114 -34 40 -29 45
53 56 55 7 220 47 335 80 194 56 457 183 598 289 370 278 604 630 711 1067 52
215 60 282 59 504 -1 212 -13 304 -69 530 -43 170 -129 376 -225 540 -76 128
-241 329 -346 420 -37 33 -70 62 -73 65 -15 16 -89 70 -97 70 -4 0 -31 16 -60
35 -171 115 -418 220 -633 270 -310 71 -473 91 -880 106 -264 9 -2806 28
-2843 21z"/>
<path d="M24410 10804 l0 -3104 2303 2 2302 3 0 310 0 310 -1947 3 -1948 2 0
1085 0 1084 1718 0 c944 0 1822 0 1950 1 l232 0 0 320 0 320 -1950 0 -1950 0
0 1060 0 1060 1950 0 1950 0 0 319 c0 313 0 319 -20 324 -12 3 -1049 5 -2305
5 l-2285 1 0 -3105z"/>
</g>
</svg>
